# xmcd CD database file
#
# Track frame offsets:
#	150
#	11900
#	31395
#	45042
#	87305
#	128670
#	141507
#	173532
#	216575
#	257162
#
# Disc length: 4008 seconds
#
# Revision: 0
# Processed by: cddbd v1.5.1PL0 Copyright (c) Steve Scherf et al.
# Submitted via: CDex 1.51
#
DISCID=870fa60a
DTITLE=Foolhouse Bluesband - % Years Of Cotton Picking... Live in Würzburg and Aub
DYEAR=1991
DGENRE=Blues
TTITLE0=Mercedes Benz
TTITLE1=Move Over
TTITLE2=Take A Ride With Me
TTITLE3=Tobacco Road
TTITLE4=40 Days
TTITLE5=Walking By Myself
TTITLE6=The Foolhouse Boogie
TTITLE7=They Call It Stormy Monday
TTITLE8=Sweet Home Chicago
TTITLE9=Your Wholly Business
EXTD=YEAR: 1991
EXTT0=
EXTT1=
EXTT2=
EXTT3=
EXTT4=
EXTT5=
EXTT6=
EXTT7=
EXTT8=
EXTT9=
PLAYORDER=
